<svg width="21" height="21" viewBox="0 0 21 21" fill="none" xmlns="http://www.w3.org/2000/svg">
<g clip-path="url(#clip0_6_1252)">
<path d="M10.5 11.2002C10.3144 11.2002 10.1363 11.2739 10.005 11.4052C9.87375 11.5365 9.8 11.7145 9.8 11.9002C9.8 12.0858 9.87375 12.2639 10.005 12.3952C10.1363 12.5264 10.3144 12.6002 10.5 12.6002C10.6857 12.6002 10.8637 12.5264 10.995 12.3952C11.1263 12.2639 11.2 12.0858 11.2 11.9002C11.2 11.7145 11.1263 11.5365 10.995 11.4052C10.8637 11.2739 10.6857 11.2002 10.5 11.2002Z" fill="black"/>
<path fill-rule="evenodd" clip-rule="evenodd" d="M16.8 8.6674L11.2 5.8674V4.2H15.4V0H9.8V5.8674L4.2 8.6674V11.2H1.4V19.6H0V21H8.4V15.4H12.6V21H21V19.6H19.6V11.2H16.8V8.6674ZM18.2 19.6V12.6H16.8V19.6H18.2ZM4.2 19.6H2.8V12.6H4.2V19.6ZM8.4 11.9C8.4 11.343 8.62125 10.8089 9.01508 10.4151C9.4089 10.0212 9.94305 9.8 10.5 9.8C11.057 9.8 11.5911 10.0212 11.9849 10.4151C12.3788 10.8089 12.6 11.343 12.6 11.9C12.6 12.457 12.3788 12.9911 11.9849 13.3849C11.5911 13.7788 11.057 14 10.5 14C9.94305 14 9.4089 13.7788 9.01508 13.3849C8.62125 12.9911 8.4 12.457 8.4 11.9Z" fill="black"/>
<path d="M11.2 20.9998V16.7998H9.8V20.9998H11.2Z" fill="black"/>
</g>
<defs>
<clipPath id="clip0_6_1252">
<rect width="21" height="21" fill="white"/>
</clipPath>
</defs>
</svg>
