<svg width="145" height="66" viewBox="0 0 145 66" fill="none" xmlns="http://www.w3.org/2000/svg">
<g clip-path="url(#clip0_1_26)">
<g clip-path="url(#clip1_1_26)">
<path d="M1.23877 1.40479C14.047 28.2564 32.0778 54.1819 62.317 62.7385C78.4634 67.3074 97.501 61.4158 94.8368 41.5927C93.0223 28.0916 82.8563 7.9604 66.9014 8.6112C49.2828 9.32985 80.1564 35.5012 83.9766 37.6906C101.858 47.939 118.986 51.3665 139.144 52.7157C146.695 53.2213 143.027 55.7715 138.236 57.3229C134.079 58.6691 129.314 60.0902 124.948 60.2854C123.616 60.3449 131.937 58.2219 133.266 57.9509C138.964 56.7884 145.496 55.2219 142.406 48.1239C141.91 46.9836 136.377 36.7777 134.669 37.2102C133.78 37.4353 133.457 45.68 133.158 46.8008C131.213 54.0802 128.243 57.5752 121.382 60.1817" stroke="url(#paint0_linear_1_26)" stroke-width="2" stroke-linecap="round"/>
</g>
</g>
<defs>
<linearGradient id="paint0_linear_1_26" x1="28.0887" y1="51.955" x2="103.358" y2="-6.16217" gradientUnits="userSpaceOnUse">
<stop stop-color="#3E4095"/>
<stop offset="1" stop-color="#9F2B2C"/>
</linearGradient>
<clipPath id="clip0_1_26">
<rect width="145" height="66" fill="white"/>
</clipPath>
<clipPath id="clip1_1_26">
<rect width="145" height="66" fill="white"/>
</clipPath>
</defs>
</svg>
